%TF.GenerationSoftware,KiCad,Pcbnew,(5.1.6)-1*%
%TF.CreationDate,2020-09-21T18:41:52-06:00*%
%TF.ProjectId,2n2222 audio amp 2,326e3232-3232-4206-9175-64696f20616d,rev?*%
%TF.SameCoordinates,PX8062360PY5faea10*%
%TF.FileFunction,Legend,Top*%
%TF.FilePolarity,Positive*%
%FSLAX46Y46*%
G04 Gerber Fmt 4.6, Leading zero omitted, Abs format (unit mm)*
G04 Created by KiCad (PCBNEW (5.1.6)-1) date 2020-09-21 18:41:52*
%MOMM*%
%LPD*%
G01*
G04 APERTURE LIST*
%ADD10C,0.120000*%
%ADD11C,0.150000*%
G04 APERTURE END LIST*
D10*
%TO.C,R2*%
X5065000Y7270000D02*
X5065000Y5430000D01*
X5065000Y5430000D02*
X8905000Y5430000D01*
X8905000Y5430000D02*
X8905000Y7270000D01*
X8905000Y7270000D02*
X5065000Y7270000D01*
X4115000Y6350000D02*
X5065000Y6350000D01*
X9855000Y6350000D02*
X8905000Y6350000D01*
%TO.C,R1*%
X7605000Y14255000D02*
X7605000Y12415000D01*
X7605000Y12415000D02*
X11445000Y12415000D01*
X11445000Y12415000D02*
X11445000Y14255000D01*
X11445000Y14255000D02*
X7605000Y14255000D01*
X6655000Y13335000D02*
X7605000Y13335000D01*
X12395000Y13335000D02*
X11445000Y13335000D01*
%TO.C,Q1*%
X7583611Y7834878D02*
G75*
G03*
X3695000Y7825000I-1948611J1690122D01*
G01*
X3695000Y7825000D02*
X7545000Y7825000D01*
%TO.C,J2*%
X11430000Y10855000D02*
X11430000Y8195000D01*
X11430000Y10855000D02*
X8830000Y10855000D01*
X8830000Y10855000D02*
X8830000Y8195000D01*
X11430000Y8195000D02*
X8830000Y8195000D01*
X14030000Y8195000D02*
X12700000Y8195000D01*
X14030000Y9525000D02*
X14030000Y8195000D01*
%TO.C,J1*%
X6985000Y4505000D02*
X6985000Y1845000D01*
X6985000Y4505000D02*
X1845000Y4505000D01*
X1845000Y4505000D02*
X1845000Y1845000D01*
X6985000Y1845000D02*
X1845000Y1845000D01*
X9585000Y1845000D02*
X8255000Y1845000D01*
X9585000Y3175000D02*
X9585000Y1845000D01*
%TO.C,R2*%
D11*
X6818333Y7817620D02*
X6485000Y8293810D01*
X6246904Y7817620D02*
X6246904Y8817620D01*
X6627857Y8817620D01*
X6723095Y8770000D01*
X6770714Y8722381D01*
X6818333Y8627143D01*
X6818333Y8484286D01*
X6770714Y8389048D01*
X6723095Y8341429D01*
X6627857Y8293810D01*
X6246904Y8293810D01*
X7199285Y8722381D02*
X7246904Y8770000D01*
X7342142Y8817620D01*
X7580238Y8817620D01*
X7675476Y8770000D01*
X7723095Y8722381D01*
X7770714Y8627143D01*
X7770714Y8531905D01*
X7723095Y8389048D01*
X7151666Y7817620D01*
X7770714Y7817620D01*
%TO.C,R1*%
X9358333Y14802620D02*
X9025000Y15278810D01*
X8786904Y14802620D02*
X8786904Y15802620D01*
X9167857Y15802620D01*
X9263095Y15755000D01*
X9310714Y15707381D01*
X9358333Y15612143D01*
X9358333Y15469286D01*
X9310714Y15374048D01*
X9263095Y15326429D01*
X9167857Y15278810D01*
X8786904Y15278810D01*
X10310714Y14802620D02*
X9739285Y14802620D01*
X10025000Y14802620D02*
X10025000Y15802620D01*
X9929761Y15659762D01*
X9834523Y15564524D01*
X9739285Y15516905D01*
%TO.C,Q1*%
X5539761Y12537381D02*
X5444523Y12585000D01*
X5349285Y12680239D01*
X5206428Y12823096D01*
X5111190Y12870715D01*
X5015952Y12870715D01*
X5063571Y12632620D02*
X4968333Y12680239D01*
X4873095Y12775477D01*
X4825476Y12965953D01*
X4825476Y13299286D01*
X4873095Y13489762D01*
X4968333Y13585000D01*
X5063571Y13632620D01*
X5254047Y13632620D01*
X5349285Y13585000D01*
X5444523Y13489762D01*
X5492142Y13299286D01*
X5492142Y12965953D01*
X5444523Y12775477D01*
X5349285Y12680239D01*
X5254047Y12632620D01*
X5063571Y12632620D01*
X6444523Y12632620D02*
X5873095Y12632620D01*
X6158809Y12632620D02*
X6158809Y13632620D01*
X6063571Y13489762D01*
X5968333Y13394524D01*
X5873095Y13346905D01*
%TO.C,J2*%
X14922380Y9191667D02*
X15636666Y9191667D01*
X15779523Y9144048D01*
X15874761Y9048810D01*
X15922380Y8905953D01*
X15922380Y8810715D01*
X15017619Y9620239D02*
X14970000Y9667858D01*
X14922380Y9763096D01*
X14922380Y10001191D01*
X14970000Y10096429D01*
X15017619Y10144048D01*
X15112857Y10191667D01*
X15208095Y10191667D01*
X15350952Y10144048D01*
X15922380Y9572620D01*
X15922380Y10191667D01*
%TO.C,J1*%
X10477380Y2841667D02*
X11191666Y2841667D01*
X11334523Y2794048D01*
X11429761Y2698810D01*
X11477380Y2555953D01*
X11477380Y2460715D01*
X11477380Y3841667D02*
X11477380Y3270239D01*
X11477380Y3555953D02*
X10477380Y3555953D01*
X10620238Y3460715D01*
X10715476Y3365477D01*
X10763095Y3270239D01*
%TD*%
M02*
