%TF.GenerationSoftware,KiCad,Pcbnew,(5.1.6)-1*%
%TF.CreationDate,2020-09-21T18:41:52-06:00*%
%TF.ProjectId,2n2222 audio amp 2,326e3232-3232-4206-9175-64696f20616d,rev?*%
%TF.SameCoordinates,PX8062360PY5faea10*%
%TF.FileFunction,Copper,L1,Top*%
%TF.FilePolarity,Positive*%
%FSLAX46Y46*%
G04 Gerber Fmt 4.6, Leading zero omitted, Abs format (unit mm)*
G04 Created by KiCad (PCBNEW (5.1.6)-1) date 2020-09-21 18:41:52*
%MOMM*%
%LPD*%
G01*
G04 APERTURE LIST*
%TA.AperFunction,NonConductor*%
%ADD10C,0.300000*%
%TD*%
%TA.AperFunction,ComponentPad*%
%ADD11C,2.000000*%
%TD*%
%TA.AperFunction,ComponentPad*%
%ADD12R,1.050000X2.000000*%
%TD*%
%TA.AperFunction,ComponentPad*%
%ADD13O,2.000000X2.000000*%
%TD*%
%TA.AperFunction,ComponentPad*%
%ADD14R,2.000000X2.000000*%
%TD*%
%TA.AperFunction,Conductor*%
%ADD15C,0.700000*%
%TD*%
%TA.AperFunction,Conductor*%
%ADD16C,0.254000*%
%TD*%
G04 APERTURE END LIST*
D10*
X10703571Y14156429D02*
X9846428Y14156429D01*
X10275000Y12656429D02*
X10275000Y14156429D01*
X9346428Y12656429D02*
X9346428Y14156429D01*
X8489285Y12656429D02*
X9132142Y13513572D01*
X8489285Y14156429D02*
X9346428Y13299286D01*
D11*
%TO.P,R2,2*%
%TO.N,Net-(J1-Pad2)*%
X10795000Y6350000D03*
%TO.P,R2,1*%
%TO.N,GND*%
X3175000Y6350000D03*
%TD*%
%TO.P,R1,2*%
%TO.N,Net-(J1-Pad1)*%
X13335000Y13335000D03*
%TO.P,R1,1*%
%TO.N,Net-(J1-Pad2)*%
X5715000Y13335000D03*
%TD*%
D12*
%TO.P,Q1,1*%
%TO.N,GND*%
X4445000Y9525000D03*
%TO.P,Q1,3*%
%TO.N,Net-(J2-Pad2)*%
%TA.AperFunction,ComponentPad*%
G36*
G01*
X6460000Y8787500D02*
X6460000Y10262500D01*
G75*
G02*
X6722500Y10525000I262500J0D01*
G01*
X7247500Y10525000D01*
G75*
G02*
X7510000Y10262500I0J-262500D01*
G01*
X7510000Y8787500D01*
G75*
G02*
X7247500Y8525000I-262500J0D01*
G01*
X6722500Y8525000D01*
G75*
G02*
X6460000Y8787500I0J262500D01*
G01*
G37*
%TD.AperFunction*%
%TO.P,Q1,2*%
%TO.N,Net-(J1-Pad2)*%
%TA.AperFunction,ComponentPad*%
G36*
G01*
X5190000Y8787500D02*
X5190000Y10262500D01*
G75*
G02*
X5452500Y10525000I262500J0D01*
G01*
X5977500Y10525000D01*
G75*
G02*
X6240000Y10262500I0J-262500D01*
G01*
X6240000Y8787500D01*
G75*
G02*
X5977500Y8525000I-262500J0D01*
G01*
X5452500Y8525000D01*
G75*
G02*
X5190000Y8787500I0J262500D01*
G01*
G37*
%TD.AperFunction*%
%TD*%
D13*
%TO.P,J2,2*%
%TO.N,Net-(J2-Pad2)*%
X10160000Y9525000D03*
D14*
%TO.P,J2,1*%
%TO.N,Net-(J1-Pad1)*%
X12700000Y9525000D03*
%TD*%
D13*
%TO.P,J1,3*%
%TO.N,GND*%
X3175000Y3175000D03*
%TO.P,J1,2*%
%TO.N,Net-(J1-Pad2)*%
X5715000Y3175000D03*
D14*
%TO.P,J1,1*%
%TO.N,Net-(J1-Pad1)*%
X8255000Y3175000D03*
%TD*%
D15*
%TO.N,Net-(J1-Pad2)*%
X5715000Y9525000D02*
X5715000Y13335000D01*
X5715000Y3810000D02*
X5715000Y3175000D01*
X10795000Y6350000D02*
X5715000Y6350000D01*
X5715000Y9525000D02*
X5715000Y6350000D01*
X5715000Y6350000D02*
X5715000Y3810000D01*
%TO.N,Net-(J1-Pad1)*%
X10795000Y3175000D02*
X8255000Y3175000D01*
X12700000Y9525000D02*
X12700000Y5080000D01*
X12700000Y5080000D02*
X10795000Y3175000D01*
X12700000Y12700000D02*
X13335000Y13335000D01*
X12700000Y9525000D02*
X12700000Y12700000D01*
%TO.N,Net-(J2-Pad2)*%
X7620000Y9525000D02*
X6985000Y8890000D01*
X7620000Y9525000D02*
X6985000Y10160000D01*
X8001000Y9525000D02*
X8001000Y9779000D01*
X8001000Y9525000D02*
X10160000Y9525000D01*
X7620000Y9525000D02*
X8001000Y9525000D01*
X8001000Y9779000D02*
X7620000Y10160000D01*
X8001000Y9525000D02*
X8001000Y9271000D01*
X8001000Y9271000D02*
X7620000Y8890000D01*
X6985000Y9525000D02*
X6985000Y8890000D01*
X6985000Y9525000D02*
X6985000Y9271000D01*
X6985000Y9525000D02*
X6985000Y9779000D01*
X7620000Y10160000D02*
X6858000Y10160000D01*
X7620000Y8890000D02*
X6790010Y8890000D01*
%TD*%
D16*
%TO.N,GND*%
G36*
X7418572Y11305000D02*
G01*
X11631429Y11305000D01*
X11631429Y15113000D01*
X15113000Y15113000D01*
X15113000Y762000D01*
X762000Y762000D01*
X762000Y13496033D01*
X4080000Y13496033D01*
X4080000Y13173967D01*
X4142832Y12858088D01*
X4266082Y12560537D01*
X4445013Y12292748D01*
X4672748Y12065013D01*
X4730001Y12026758D01*
X4730000Y10794876D01*
X4703702Y10762831D01*
X4620480Y10607134D01*
X4569232Y10438193D01*
X4551928Y10262500D01*
X4551928Y8787500D01*
X4569232Y8611807D01*
X4620480Y8442866D01*
X4703702Y8287169D01*
X4730000Y8255124D01*
X4730001Y6398390D01*
X4725235Y6350000D01*
X4730000Y6301620D01*
X4730001Y4483242D01*
X4672748Y4444987D01*
X4445013Y4217252D01*
X4266082Y3949463D01*
X4142832Y3651912D01*
X4080000Y3336033D01*
X4080000Y3013967D01*
X4142832Y2698088D01*
X4266082Y2400537D01*
X4445013Y2132748D01*
X4672748Y1905013D01*
X4940537Y1726082D01*
X5238088Y1602832D01*
X5553967Y1540000D01*
X5876033Y1540000D01*
X6191912Y1602832D01*
X6489463Y1726082D01*
X6699809Y1866630D01*
X6724463Y1820506D01*
X6803815Y1723815D01*
X6900506Y1644463D01*
X7010820Y1585498D01*
X7130518Y1549188D01*
X7255000Y1536928D01*
X9255000Y1536928D01*
X9379482Y1549188D01*
X9499180Y1585498D01*
X9609494Y1644463D01*
X9706185Y1723815D01*
X9785537Y1820506D01*
X9844502Y1930820D01*
X9880812Y2050518D01*
X9893072Y2175000D01*
X9893072Y2190000D01*
X10746620Y2190000D01*
X10795000Y2185235D01*
X10843380Y2190000D01*
X10988094Y2204253D01*
X11173767Y2260576D01*
X11344884Y2352040D01*
X11494870Y2475130D01*
X11525716Y2512716D01*
X13362290Y4349289D01*
X13399870Y4380130D01*
X13522960Y4530116D01*
X13614424Y4701233D01*
X13670747Y4886906D01*
X13685000Y5031620D01*
X13689765Y5080000D01*
X13685000Y5128380D01*
X13685000Y7886928D01*
X13700000Y7886928D01*
X13824482Y7899188D01*
X13944180Y7935498D01*
X14054494Y7994463D01*
X14151185Y8073815D01*
X14230537Y8170506D01*
X14289502Y8280820D01*
X14325812Y8400518D01*
X14338072Y8525000D01*
X14338072Y10525000D01*
X14325812Y10649482D01*
X14289502Y10769180D01*
X14230537Y10879494D01*
X14151185Y10976185D01*
X14054494Y11055537D01*
X13944180Y11114502D01*
X13824482Y11150812D01*
X13700000Y11163072D01*
X13685000Y11163072D01*
X13685000Y11737588D01*
X13811912Y11762832D01*
X14109463Y11886082D01*
X14377252Y12065013D01*
X14604987Y12292748D01*
X14783918Y12560537D01*
X14907168Y12858088D01*
X14970000Y13173967D01*
X14970000Y13496033D01*
X14907168Y13811912D01*
X14783918Y14109463D01*
X14604987Y14377252D01*
X14377252Y14604987D01*
X14109463Y14783918D01*
X13811912Y14907168D01*
X13496033Y14970000D01*
X13173967Y14970000D01*
X12858088Y14907168D01*
X12560537Y14783918D01*
X12292748Y14604987D01*
X12065013Y14377252D01*
X11886082Y14109463D01*
X11762832Y13811912D01*
X11700000Y13496033D01*
X11700000Y13173967D01*
X11745328Y12946086D01*
X11729253Y12893093D01*
X11710235Y12700000D01*
X11715001Y12651610D01*
X11715001Y11163072D01*
X11700000Y11163072D01*
X11575518Y11150812D01*
X11455820Y11114502D01*
X11345506Y11055537D01*
X11248815Y10976185D01*
X11169463Y10879494D01*
X11144809Y10833370D01*
X10934463Y10973918D01*
X10636912Y11097168D01*
X10321033Y11160000D01*
X9998967Y11160000D01*
X9683088Y11097168D01*
X9385537Y10973918D01*
X9117748Y10794987D01*
X8890013Y10567252D01*
X8851758Y10510000D01*
X8662999Y10510000D01*
X8350716Y10822283D01*
X8319870Y10859870D01*
X8169884Y10982960D01*
X7998767Y11074424D01*
X7813094Y11130747D01*
X7668380Y11145000D01*
X7620000Y11149765D01*
X7571620Y11145000D01*
X7425725Y11145000D01*
X7423193Y11145768D01*
X7247500Y11163072D01*
X6722500Y11163072D01*
X6700000Y11160856D01*
X6700000Y12026758D01*
X6757252Y12065013D01*
X6984987Y12292748D01*
X7163918Y12560537D01*
X7287168Y12858088D01*
X7350000Y13173967D01*
X7350000Y13496033D01*
X7287168Y13811912D01*
X7163918Y14109463D01*
X6984987Y14377252D01*
X6757252Y14604987D01*
X6489463Y14783918D01*
X6191912Y14907168D01*
X5876033Y14970000D01*
X5553967Y14970000D01*
X5238088Y14907168D01*
X4940537Y14783918D01*
X4672748Y14604987D01*
X4445013Y14377252D01*
X4266082Y14109463D01*
X4142832Y13811912D01*
X4080000Y13496033D01*
X762000Y13496033D01*
X762000Y15113000D01*
X7418572Y15113000D01*
X7418572Y11305000D01*
G37*
X7418572Y11305000D02*
X11631429Y11305000D01*
X11631429Y15113000D01*
X15113000Y15113000D01*
X15113000Y762000D01*
X762000Y762000D01*
X762000Y13496033D01*
X4080000Y13496033D01*
X4080000Y13173967D01*
X4142832Y12858088D01*
X4266082Y12560537D01*
X4445013Y12292748D01*
X4672748Y12065013D01*
X4730001Y12026758D01*
X4730000Y10794876D01*
X4703702Y10762831D01*
X4620480Y10607134D01*
X4569232Y10438193D01*
X4551928Y10262500D01*
X4551928Y8787500D01*
X4569232Y8611807D01*
X4620480Y8442866D01*
X4703702Y8287169D01*
X4730000Y8255124D01*
X4730001Y6398390D01*
X4725235Y6350000D01*
X4730000Y6301620D01*
X4730001Y4483242D01*
X4672748Y4444987D01*
X4445013Y4217252D01*
X4266082Y3949463D01*
X4142832Y3651912D01*
X4080000Y3336033D01*
X4080000Y3013967D01*
X4142832Y2698088D01*
X4266082Y2400537D01*
X4445013Y2132748D01*
X4672748Y1905013D01*
X4940537Y1726082D01*
X5238088Y1602832D01*
X5553967Y1540000D01*
X5876033Y1540000D01*
X6191912Y1602832D01*
X6489463Y1726082D01*
X6699809Y1866630D01*
X6724463Y1820506D01*
X6803815Y1723815D01*
X6900506Y1644463D01*
X7010820Y1585498D01*
X7130518Y1549188D01*
X7255000Y1536928D01*
X9255000Y1536928D01*
X9379482Y1549188D01*
X9499180Y1585498D01*
X9609494Y1644463D01*
X9706185Y1723815D01*
X9785537Y1820506D01*
X9844502Y1930820D01*
X9880812Y2050518D01*
X9893072Y2175000D01*
X9893072Y2190000D01*
X10746620Y2190000D01*
X10795000Y2185235D01*
X10843380Y2190000D01*
X10988094Y2204253D01*
X11173767Y2260576D01*
X11344884Y2352040D01*
X11494870Y2475130D01*
X11525716Y2512716D01*
X13362290Y4349289D01*
X13399870Y4380130D01*
X13522960Y4530116D01*
X13614424Y4701233D01*
X13670747Y4886906D01*
X13685000Y5031620D01*
X13689765Y5080000D01*
X13685000Y5128380D01*
X13685000Y7886928D01*
X13700000Y7886928D01*
X13824482Y7899188D01*
X13944180Y7935498D01*
X14054494Y7994463D01*
X14151185Y8073815D01*
X14230537Y8170506D01*
X14289502Y8280820D01*
X14325812Y8400518D01*
X14338072Y8525000D01*
X14338072Y10525000D01*
X14325812Y10649482D01*
X14289502Y10769180D01*
X14230537Y10879494D01*
X14151185Y10976185D01*
X14054494Y11055537D01*
X13944180Y11114502D01*
X13824482Y11150812D01*
X13700000Y11163072D01*
X13685000Y11163072D01*
X13685000Y11737588D01*
X13811912Y11762832D01*
X14109463Y11886082D01*
X14377252Y12065013D01*
X14604987Y12292748D01*
X14783918Y12560537D01*
X14907168Y12858088D01*
X14970000Y13173967D01*
X14970000Y13496033D01*
X14907168Y13811912D01*
X14783918Y14109463D01*
X14604987Y14377252D01*
X14377252Y14604987D01*
X14109463Y14783918D01*
X13811912Y14907168D01*
X13496033Y14970000D01*
X13173967Y14970000D01*
X12858088Y14907168D01*
X12560537Y14783918D01*
X12292748Y14604987D01*
X12065013Y14377252D01*
X11886082Y14109463D01*
X11762832Y13811912D01*
X11700000Y13496033D01*
X11700000Y13173967D01*
X11745328Y12946086D01*
X11729253Y12893093D01*
X11710235Y12700000D01*
X11715001Y12651610D01*
X11715001Y11163072D01*
X11700000Y11163072D01*
X11575518Y11150812D01*
X11455820Y11114502D01*
X11345506Y11055537D01*
X11248815Y10976185D01*
X11169463Y10879494D01*
X11144809Y10833370D01*
X10934463Y10973918D01*
X10636912Y11097168D01*
X10321033Y11160000D01*
X9998967Y11160000D01*
X9683088Y11097168D01*
X9385537Y10973918D01*
X9117748Y10794987D01*
X8890013Y10567252D01*
X8851758Y10510000D01*
X8662999Y10510000D01*
X8350716Y10822283D01*
X8319870Y10859870D01*
X8169884Y10982960D01*
X7998767Y11074424D01*
X7813094Y11130747D01*
X7668380Y11145000D01*
X7620000Y11149765D01*
X7571620Y11145000D01*
X7425725Y11145000D01*
X7423193Y11145768D01*
X7247500Y11163072D01*
X6722500Y11163072D01*
X6700000Y11160856D01*
X6700000Y12026758D01*
X6757252Y12065013D01*
X6984987Y12292748D01*
X7163918Y12560537D01*
X7287168Y12858088D01*
X7350000Y13173967D01*
X7350000Y13496033D01*
X7287168Y13811912D01*
X7163918Y14109463D01*
X6984987Y14377252D01*
X6757252Y14604987D01*
X6489463Y14783918D01*
X6191912Y14907168D01*
X5876033Y14970000D01*
X5553967Y14970000D01*
X5238088Y14907168D01*
X4940537Y14783918D01*
X4672748Y14604987D01*
X4445013Y14377252D01*
X4266082Y14109463D01*
X4142832Y13811912D01*
X4080000Y13496033D01*
X762000Y13496033D01*
X762000Y15113000D01*
X7418572Y15113000D01*
X7418572Y11305000D01*
%TD*%
M02*
